<svg width="81" height="29" viewBox="0 0 81 29" fill="none" xmlns="http://www.w3.org/2000/svg">
<path d="M8.36765 3.36419C7.03398 3.16305 5.48286 3.98722 4.90312 5.20501L0.883972 13.6475C0.395766 14.673 0.910438 15.6417 2.03353 15.811V15.811C3.57777 16.0439 5.37381 15.0896 6.04509 13.6796L9.73274 5.93338C10.3125 4.71559 9.70132 3.56532 8.36765 3.36419V3.36419Z" fill="#2E3337"/>
<path d="M8.36765 25.9998C7.03398 26.201 5.48286 25.3768 4.90312 24.159L0.883972 15.7165C0.395766 14.691 0.910438 13.7224 2.03353 13.553V13.553C3.57777 13.3201 5.37381 14.2744 6.04509 15.6845L9.73274 23.4306C10.3125 24.6484 9.70132 25.7987 8.36765 25.9998V25.9998Z" fill="#2E3337"/>
<path d="M24.517 23V5.54545H31.5057C32.7898 5.54545 33.8608 5.7358 34.7188 6.11648C35.5767 6.49716 36.2216 7.02557 36.6534 7.7017C37.0852 8.37216 37.3011 9.14489 37.3011 10.0199C37.3011 10.7017 37.1648 11.3011 36.892 11.8182C36.6193 12.3295 36.2443 12.75 35.767 13.0795C35.2955 13.4034 34.7557 13.6335 34.1477 13.7699V13.9403C34.8125 13.9687 35.4347 14.1562 36.0142 14.5028C36.5994 14.8494 37.0739 15.3352 37.4375 15.9602C37.8011 16.5795 37.983 17.3182 37.983 18.1761C37.983 19.1023 37.7528 19.929 37.2926 20.6562C36.8381 21.3778 36.1648 21.9489 35.2727 22.3693C34.3807 22.7898 33.2813 23 31.9744 23H24.517ZM28.2074 19.983H31.2159C32.2443 19.983 32.9943 19.7869 33.4659 19.3949C33.9375 18.9972 34.1733 18.4687 34.1733 17.8097C34.1733 17.3267 34.0568 16.9006 33.8239 16.5312C33.5909 16.1619 33.2585 15.8722 32.8267 15.6619C32.4006 15.4517 31.892 15.3466 31.3011 15.3466H28.2074V19.983ZM28.2074 12.8494H30.9432C31.4489 12.8494 31.8977 12.7614 32.2898 12.5852C32.6875 12.4034 33 12.1477 33.2273 11.8182C33.4602 11.4886 33.5767 11.0938 33.5767 10.6335C33.5767 10.0028 33.3523 9.49432 32.9034 9.10795C32.4602 8.72159 31.8295 8.52841 31.0114 8.52841H28.2074V12.8494ZM44.049 23.2472C43.2138 23.2472 42.4695 23.1023 41.8161 22.8125C41.1626 22.517 40.6456 22.0824 40.2649 21.5085C39.8899 20.929 39.7024 20.2074 39.7024 19.3438C39.7024 18.6165 39.8359 18.0057 40.103 17.5114C40.37 17.017 40.7337 16.6193 41.1939 16.3182C41.6541 16.017 42.1768 15.7898 42.7621 15.6364C43.353 15.483 43.9723 15.375 44.62 15.3125C45.3814 15.233 45.995 15.1591 46.4609 15.0909C46.9268 15.017 47.2649 14.9091 47.4751 14.767C47.6854 14.625 47.7905 14.4148 47.7905 14.1364V14.0852C47.7905 13.5455 47.62 13.1278 47.2791 12.8324C46.9439 12.5369 46.4666 12.3892 45.8473 12.3892C45.1939 12.3892 44.674 12.5341 44.2876 12.8239C43.9013 13.108 43.6456 13.4659 43.5206 13.8977L40.1626 13.625C40.3331 12.8295 40.6683 12.142 41.1683 11.5625C41.6683 10.9773 42.3132 10.5284 43.103 10.2159C43.8984 9.89773 44.8189 9.73864 45.8643 9.73864C46.5916 9.73864 47.2876 9.82386 47.9524 9.99432C48.6229 10.1648 49.2166 10.429 49.7337 10.7869C50.2564 11.1449 50.6683 11.6051 50.9695 12.1676C51.2706 12.7244 51.4212 13.392 51.4212 14.1705V23H47.978V21.1847H47.8757C47.6655 21.5938 47.3842 21.9545 47.032 22.267C46.6797 22.5739 46.2564 22.8153 45.7621 22.9915C45.2678 23.1619 44.6967 23.2472 44.049 23.2472ZM45.0888 20.7415C45.6229 20.7415 46.0945 20.6364 46.5036 20.4261C46.9126 20.2102 47.2337 19.9205 47.4666 19.5568C47.6996 19.1932 47.8161 18.7812 47.8161 18.321V16.9318C47.7024 17.0057 47.5462 17.0739 47.3473 17.1364C47.1541 17.1932 46.9354 17.2472 46.6911 17.2983C46.4467 17.3437 46.2024 17.3864 45.9581 17.4261C45.7138 17.4602 45.4922 17.4915 45.2933 17.5199C44.8672 17.5824 44.495 17.6818 44.1768 17.8182C43.8587 17.9545 43.6115 18.1392 43.4354 18.3722C43.2592 18.5994 43.1712 18.8835 43.1712 19.2244C43.1712 19.7188 43.3501 20.0966 43.7081 20.358C44.0717 20.6136 44.532 20.7415 45.0888 20.7415ZM60.1527 23.2557C58.8118 23.2557 57.6584 22.9716 56.6925 22.4034C55.7322 21.8295 54.9936 21.0341 54.4766 20.017C53.9652 19 53.7095 17.8295 53.7095 16.5057C53.7095 15.1648 53.968 13.9886 54.4851 12.9773C55.0078 11.9602 55.7493 11.1676 56.7095 10.5994C57.6697 10.0256 58.8118 9.73864 60.1357 9.73864C61.2777 9.73864 62.2777 9.94602 63.1357 10.3608C63.9936 10.7756 64.6726 11.358 65.1726 12.108C65.6726 12.858 65.9482 13.7386 65.9993 14.75H62.5732C62.4766 14.0966 62.2209 13.571 61.8061 13.1733C61.397 12.7699 60.8601 12.5682 60.1953 12.5682C59.6328 12.5682 59.1413 12.7216 58.7209 13.0284C58.3061 13.3295 57.9822 13.7699 57.7493 14.3494C57.5163 14.929 57.3999 15.6307 57.3999 16.4545C57.3999 17.2898 57.5135 18 57.7408 18.5852C57.9737 19.1705 58.3004 19.6165 58.7209 19.9233C59.1413 20.2301 59.6328 20.3835 60.1953 20.3835C60.6101 20.3835 60.9822 20.2983 61.3118 20.1278C61.647 19.9574 61.9226 19.7102 62.1385 19.3864C62.3601 19.0568 62.505 18.6619 62.5732 18.2017H65.9993C65.9425 19.2017 65.6697 20.0824 65.1811 20.8438C64.6982 21.5994 64.0305 22.1903 63.1783 22.6165C62.326 23.0426 61.3175 23.2557 60.1527 23.2557ZM71.6136 19.233L71.6222 14.8778H72.1506L76.3438 9.90909H80.5114L74.8778 16.4886H74.017L71.6136 19.233ZM68.3239 23V5.54545H71.9545V23H68.3239ZM76.5057 23L72.6534 17.2983L75.0739 14.733L80.7585 23H76.5057Z" fill="#2E3337"/>
</svg>
