<svg width="42" height="11" viewBox="0 0 42 11" fill="none" xmlns="http://www.w3.org/2000/svg">
<path d="M0.647017 2.41484C0.289663 3.7485 1.08112 5.11934 2.41478 5.4767L20.1827 10.2376C21.3058 10.5385 22.4602 9.87205 22.7611 8.74896C23.1749 7.20472 22.2585 5.61743 20.7143 5.20365L3.70888 0.647069C2.37521 0.289715 1.00437 1.08117 0.647017 2.41484Z" fill="#95AABB"/>
<path d="M40.8633 2.41484C41.2207 3.7485 40.4292 5.11934 39.0955 5.4767L21.3276 10.2376C20.2045 10.5385 19.0501 9.87205 18.7492 8.74896C18.3354 7.20472 19.2518 5.61743 20.7961 5.20365L37.8015 0.647069C39.1351 0.289715 40.506 1.08117 40.8633 2.41484Z" fill="#95AABB"/>
</svg>
