<svg width="95" height="22" viewBox="0 0 95 22" fill="none" xmlns="http://www.w3.org/2000/svg">
<rect x="1" y="1" width="29" height="20" rx="2" stroke="#E5AA57" stroke-width="2"/>
<rect x="6" y="6" width="3" height="2" rx="1" fill="#E9AC57"/>
<rect x="6" y="10" width="3" height="2" rx="1" fill="#E9AC57"/>
<rect x="6" y="14" width="3" height="2" rx="1" fill="#E9AC57"/>
<rect x="11" y="6" width="14" height="2" rx="1" fill="#E9AC57"/>
<rect x="11" y="10" width="14" height="2" rx="1" fill="#E9AC57"/>
<rect x="11" y="14" width="14" height="2" rx="1" fill="#E9AC57"/>
<path d="M49.2784 9.4375H46.7898C46.7443 9.11553 46.6515 8.82955 46.5114 8.57955C46.3712 8.32576 46.1913 8.10985 45.9716 7.93182C45.7519 7.75379 45.4981 7.61742 45.2102 7.52273C44.9261 7.42803 44.6174 7.38068 44.2841 7.38068C43.6818 7.38068 43.1572 7.5303 42.7102 7.82955C42.2633 8.125 41.9167 8.55682 41.6705 9.125C41.4242 9.68939 41.3011 10.375 41.3011 11.1818C41.3011 12.0114 41.4242 12.7083 41.6705 13.2727C41.9205 13.8371 42.2689 14.2633 42.7159 14.5511C43.1629 14.839 43.6799 14.983 44.267 14.983C44.5966 14.983 44.9015 14.9394 45.1818 14.8523C45.4659 14.7652 45.7178 14.6383 45.9375 14.4716C46.1572 14.3011 46.339 14.0947 46.483 13.8523C46.6307 13.6098 46.733 13.3333 46.7898 13.0227L49.2784 13.0341C49.214 13.5682 49.053 14.0833 48.7955 14.5795C48.5417 15.072 48.1989 15.5133 47.767 15.9034C47.339 16.2898 46.8277 16.5966 46.233 16.8239C45.642 17.0473 44.9735 17.1591 44.2273 17.1591C43.1894 17.1591 42.2614 16.9242 41.4432 16.4545C40.6288 15.9848 39.9848 15.3049 39.5114 14.4148C39.0417 13.5246 38.8068 12.447 38.8068 11.1818C38.8068 9.91288 39.0455 8.83333 39.5227 7.94318C40 7.05303 40.6477 6.375 41.4659 5.90909C42.2841 5.43939 43.2045 5.20455 44.2273 5.20455C44.9015 5.20455 45.5265 5.29924 46.1023 5.48864C46.6818 5.67803 47.1951 5.95455 47.642 6.31818C48.089 6.67803 48.4527 7.11932 48.733 7.64205C49.017 8.16477 49.1989 8.76326 49.2784 9.4375ZM52.8295 17H50.1932L54.2102 5.36364H57.3807L61.392 17H58.7557L55.8409 8.02273H55.75L52.8295 17ZM52.6648 12.4261H58.892V14.3466H52.6648V12.4261ZM62.7926 17V5.36364H67.3835C68.2623 5.36364 69.0123 5.52083 69.6335 5.83523C70.2585 6.14583 70.7339 6.58712 71.0597 7.15909C71.3892 7.72727 71.554 8.39583 71.554 9.16477C71.554 9.9375 71.3873 10.6023 71.054 11.1591C70.7206 11.7121 70.2377 12.1364 69.6051 12.4318C68.9763 12.7273 68.215 12.875 67.321 12.875H64.2472V10.8977H66.9233C67.393 10.8977 67.7831 10.8333 68.0938 10.7045C68.4044 10.5758 68.6354 10.3826 68.7869 10.125C68.9422 9.86742 69.0199 9.54735 69.0199 9.16477C69.0199 8.77841 68.9422 8.45265 68.7869 8.1875C68.6354 7.92235 68.4025 7.72159 68.0881 7.58523C67.7775 7.44508 67.3854 7.375 66.9119 7.375H65.2528V17H62.7926ZM69.0767 11.7045L71.9688 17H69.2528L66.4233 11.7045H69.0767ZM77.4176 17H73.2926V5.36364H77.4517C78.6222 5.36364 79.6297 5.59659 80.4744 6.0625C81.3191 6.52462 81.9688 7.18939 82.4233 8.05682C82.8816 8.92424 83.1108 9.96212 83.1108 11.1705C83.1108 12.3826 82.8816 13.4242 82.4233 14.2955C81.9688 15.1667 81.3153 15.8352 80.4631 16.3011C79.6146 16.767 78.5994 17 77.4176 17ZM75.7528 14.892H77.3153C78.0426 14.892 78.6544 14.7633 79.1506 14.5057C79.6506 14.2443 80.0256 13.8409 80.2756 13.2955C80.5294 12.7462 80.6562 12.0379 80.6562 11.1705C80.6562 10.3106 80.5294 9.60795 80.2756 9.0625C80.0256 8.51705 79.6525 8.11553 79.1562 7.85795C78.66 7.60038 78.0483 7.47159 77.321 7.47159H75.7528V14.892ZM91.2457 8.71023C91.2003 8.25189 91.0052 7.89583 90.6605 7.64205C90.3158 7.38826 89.848 7.26136 89.2571 7.26136C88.8556 7.26136 88.5166 7.31818 88.2401 7.43182C87.9635 7.54167 87.7514 7.69508 87.6037 7.89205C87.4598 8.08902 87.3878 8.3125 87.3878 8.5625C87.3802 8.77083 87.4238 8.95265 87.5185 9.10795C87.617 9.26326 87.7514 9.39773 87.9219 9.51136C88.0923 9.62121 88.2893 9.7178 88.5128 9.80114C88.7363 9.88068 88.9749 9.94886 89.2287 10.0057L90.2741 10.2557C90.7817 10.3693 91.2476 10.5208 91.6719 10.7102C92.0961 10.8996 92.4635 11.1326 92.7741 11.4091C93.0848 11.6856 93.3253 12.0114 93.4957 12.3864C93.67 12.7614 93.759 13.1913 93.7628 13.6761C93.759 14.3883 93.5772 15.0057 93.2173 15.5284C92.8613 16.0473 92.3461 16.4508 91.6719 16.7386C91.0014 17.0227 90.1927 17.1648 89.2457 17.1648C88.3063 17.1648 87.4882 17.0208 86.7912 16.733C86.098 16.4451 85.5563 16.0189 85.1662 15.4545C84.7798 14.8864 84.5772 14.1837 84.5582 13.3466H86.9389C86.9654 13.7367 87.0772 14.0625 87.2741 14.3239C87.4749 14.5814 87.742 14.7765 88.0753 14.9091C88.4124 15.0379 88.7931 15.1023 89.2173 15.1023C89.634 15.1023 89.9957 15.0417 90.3026 14.9205C90.6132 14.7992 90.8537 14.6307 91.0241 14.4148C91.1946 14.1989 91.2798 13.9508 91.2798 13.6705C91.2798 13.4091 91.2022 13.1894 91.0469 13.0114C90.8954 12.8333 90.6719 12.6818 90.3764 12.5568C90.0848 12.4318 89.7268 12.3182 89.3026 12.2159L88.0355 11.8977C87.0545 11.6591 86.2798 11.286 85.7116 10.7784C85.1435 10.2708 84.8613 9.58712 84.8651 8.72727C84.8613 8.02273 85.0488 7.4072 85.4276 6.88068C85.8101 6.35417 86.3348 5.94318 87.0014 5.64773C87.6681 5.35227 88.4257 5.20455 89.2741 5.20455C90.1378 5.20455 90.8916 5.35227 91.5355 5.64773C92.1832 5.94318 92.687 6.35417 93.0469 6.88068C93.4067 7.4072 93.5923 8.01705 93.6037 8.71023H91.2457Z" fill="black"/>
</svg>
