<svg width="117" height="37" viewBox="0 0 117 37" fill="none" xmlns="http://www.w3.org/2000/svg">
<path d="M20.517 31V13.5455H27.4034C28.7273 13.5455 29.8551 13.7983 30.7869 14.304C31.7188 14.804 32.429 15.5 32.9176 16.392C33.4119 17.2784 33.6591 18.3011 33.6591 19.4602C33.6591 20.6193 33.4091 21.642 32.9091 22.5284C32.4091 23.4148 31.6847 24.1051 30.7358 24.5994C29.7926 25.0937 28.6506 25.3409 27.3097 25.3409H22.9205V22.3835H26.7131C27.4233 22.3835 28.0085 22.2614 28.4688 22.017C28.9347 21.767 29.2813 21.4233 29.5085 20.9858C29.7415 20.5426 29.858 20.0341 29.858 19.4602C29.858 18.8807 29.7415 18.375 29.5085 17.9432C29.2813 17.5057 28.9347 17.1676 28.4688 16.929C28.0028 16.6847 27.4119 16.5625 26.696 16.5625H24.2074V31H20.517ZM35.9879 31V17.9091H39.5078V20.1932H39.6442C39.8828 19.3807 40.2834 18.767 40.8459 18.3523C41.4084 17.9318 42.0561 17.7216 42.7891 17.7216C42.9709 17.7216 43.1669 17.733 43.3771 17.7557C43.5874 17.7784 43.772 17.8097 43.9311 17.8494V21.071C43.7607 21.0199 43.5249 20.9744 43.2237 20.9347C42.9226 20.8949 42.647 20.875 42.397 20.875C41.8629 20.875 41.3857 20.9915 40.9652 21.2244C40.5504 21.4517 40.2209 21.7699 39.9766 22.179C39.7379 22.5881 39.6186 23.0597 39.6186 23.5938V31H35.9879ZM49.1662 31.2472C48.331 31.2472 47.5866 31.1023 46.9332 30.8125C46.2798 30.517 45.7628 30.0824 45.3821 29.5085C45.0071 28.929 44.8196 28.2074 44.8196 27.3438C44.8196 26.6165 44.9531 26.0057 45.2202 25.5114C45.4872 25.017 45.8509 24.6193 46.3111 24.3182C46.7713 24.017 47.294 23.7898 47.8793 23.6364C48.4702 23.483 49.0895 23.375 49.7372 23.3125C50.4986 23.233 51.1122 23.1591 51.5781 23.0909C52.044 23.017 52.3821 22.9091 52.5923 22.767C52.8026 22.625 52.9077 22.4148 52.9077 22.1364V22.0852C52.9077 21.5455 52.7372 21.1278 52.3963 20.8324C52.0611 20.5369 51.5838 20.3892 50.9645 20.3892C50.3111 20.3892 49.7912 20.5341 49.4048 20.8239C49.0185 21.108 48.7628 21.4659 48.6378 21.8977L45.2798 21.625C45.4503 20.8295 45.7855 20.142 46.2855 19.5625C46.7855 18.9773 47.4304 18.5284 48.2202 18.2159C49.0156 17.8977 49.9361 17.7386 50.9815 17.7386C51.7088 17.7386 52.4048 17.8239 53.0696 17.9943C53.7401 18.1648 54.3338 18.429 54.8509 18.7869C55.3736 19.1449 55.7855 19.6051 56.0866 20.1676C56.3878 20.7244 56.5384 21.392 56.5384 22.1705V31H53.0952V29.1847H52.9929C52.7827 29.5938 52.5014 29.9545 52.1491 30.267C51.7969 30.5739 51.3736 30.8153 50.8793 30.9915C50.3849 31.1619 49.8139 31.2472 49.1662 31.2472ZM50.206 28.7415C50.7401 28.7415 51.2116 28.6364 51.6207 28.4261C52.0298 28.2102 52.3509 27.9205 52.5838 27.5568C52.8168 27.1932 52.9332 26.7812 52.9332 26.321V24.9318C52.8196 25.0057 52.6634 25.0739 52.4645 25.1364C52.2713 25.1932 52.0526 25.2472 51.8082 25.2983C51.5639 25.3437 51.3196 25.3864 51.0753 25.4261C50.831 25.4602 50.6094 25.4915 50.4105 25.5199C49.9844 25.5824 49.6122 25.6818 49.294 25.8182C48.9759 25.9545 48.7287 26.1392 48.5526 26.3722C48.3764 26.5994 48.2884 26.8835 48.2884 27.2244C48.2884 27.7188 48.4673 28.0966 48.8253 28.358C49.1889 28.6136 49.6491 28.7415 50.206 28.7415ZM65.2699 31.2557C63.929 31.2557 62.7756 30.9716 61.8097 30.4034C60.8494 29.8295 60.1108 29.0341 59.5938 28.017C59.0824 27 58.8267 25.8295 58.8267 24.5057C58.8267 23.1648 59.0852 21.9886 59.6023 20.9773C60.125 19.9602 60.8665 19.1676 61.8267 18.5994C62.7869 18.0256 63.929 17.7386 65.2528 17.7386C66.3949 17.7386 67.3949 17.946 68.2528 18.3608C69.1108 18.7756 69.7898 19.358 70.2898 20.108C70.7898 20.858 71.0653 21.7386 71.1165 22.75H67.6903C67.5938 22.0966 67.3381 21.571 66.9233 21.1733C66.5142 20.7699 65.9773 20.5682 65.3125 20.5682C64.75 20.5682 64.2585 20.7216 63.8381 21.0284C63.4233 21.3295 63.0994 21.7699 62.8665 22.3494C62.6335 22.929 62.517 23.6307 62.517 24.4545C62.517 25.2898 62.6307 26 62.858 26.5852C63.0909 27.1705 63.4176 27.6165 63.8381 27.9233C64.2585 28.2301 64.75 28.3835 65.3125 28.3835C65.7273 28.3835 66.0994 28.2983 66.429 28.1278C66.7642 27.9574 67.0398 27.7102 67.2557 27.3864C67.4773 27.0568 67.6222 26.6619 67.6903 26.2017H71.1165C71.0597 27.2017 70.7869 28.0824 70.2983 28.8438C69.8153 29.5994 69.1477 30.1903 68.2955 30.6165C67.4432 31.0426 66.4347 31.2557 65.2699 31.2557ZM80.4041 17.9091V20.6364H72.5206V17.9091H80.4041ZM74.3104 14.7727H77.9411V26.9773C77.9411 27.3125 77.9922 27.5739 78.0945 27.7614C78.1967 27.9432 78.3388 28.071 78.5206 28.1449C78.7081 28.2187 78.924 28.2557 79.1683 28.2557C79.3388 28.2557 79.5092 28.2415 79.6797 28.2131C79.8501 28.179 79.9808 28.1534 80.0717 28.1364L80.6428 30.8381C80.4609 30.8949 80.2053 30.9602 79.8757 31.0341C79.5462 31.1136 79.1456 31.1619 78.674 31.179C77.799 31.2131 77.032 31.0966 76.3729 30.8295C75.7195 30.5625 75.2109 30.1477 74.8473 29.5852C74.4837 29.0227 74.3047 28.3125 74.3104 27.4545V14.7727ZM82.7692 31V17.9091H86.3999V31H82.7692ZM84.593 16.2216C84.0533 16.2216 83.5902 16.0426 83.2038 15.6847C82.8232 15.321 82.6328 14.8864 82.6328 14.3807C82.6328 13.8807 82.8232 13.4517 83.2038 13.0938C83.5902 12.7301 84.0533 12.5483 84.593 12.5483C85.1328 12.5483 85.593 12.7301 85.9737 13.0938C86.3601 13.4517 86.5533 13.8807 86.5533 14.3807C86.5533 14.8864 86.3601 15.321 85.9737 15.6847C85.593 16.0426 85.1328 16.2216 84.593 16.2216ZM95.223 31.2557C93.8821 31.2557 92.7287 30.9716 91.7628 30.4034C90.8026 29.8295 90.0639 29.0341 89.5469 28.017C89.0355 27 88.7798 25.8295 88.7798 24.5057C88.7798 23.1648 89.0384 21.9886 89.5554 20.9773C90.0781 19.9602 90.8196 19.1676 91.7798 18.5994C92.7401 18.0256 93.8821 17.7386 95.206 17.7386C96.348 17.7386 97.348 17.946 98.206 18.3608C99.0639 18.7756 99.7429 19.358 100.243 20.108C100.743 20.858 101.018 21.7386 101.07 22.75H97.6435C97.5469 22.0966 97.2912 21.571 96.8764 21.1733C96.4673 20.7699 95.9304 20.5682 95.2656 20.5682C94.7031 20.5682 94.2116 20.7216 93.7912 21.0284C93.3764 21.3295 93.0526 21.7699 92.8196 22.3494C92.5866 22.929 92.4702 23.6307 92.4702 24.4545C92.4702 25.2898 92.5838 26 92.8111 26.5852C93.044 27.1705 93.3707 27.6165 93.7912 27.9233C94.2116 28.2301 94.7031 28.3835 95.2656 28.3835C95.6804 28.3835 96.0526 28.2983 96.3821 28.1278C96.7173 27.9574 96.9929 27.7102 97.2088 27.3864C97.4304 27.0568 97.5753 26.6619 97.6435 26.2017H101.07C101.013 27.2017 100.74 28.0824 100.251 28.8438C99.7685 29.5994 99.1009 30.1903 98.2486 30.6165C97.3963 31.0426 96.3878 31.2557 95.223 31.2557ZM109.36 31.2557C108.013 31.2557 106.854 30.983 105.883 30.4375C104.917 29.8864 104.173 29.108 103.65 28.1023C103.127 27.0909 102.866 25.8949 102.866 24.5142C102.866 23.1676 103.127 21.9858 103.65 20.9688C104.173 19.9517 104.908 19.1591 105.857 18.5909C106.812 18.0227 107.931 17.7386 109.215 17.7386C110.079 17.7386 110.883 17.8778 111.627 18.1562C112.377 18.429 113.031 18.8409 113.587 19.392C114.15 19.9432 114.587 20.6364 114.9 21.4716C115.212 22.3011 115.369 23.2727 115.369 24.3864V25.3835H104.315V23.1335H111.951C111.951 22.6108 111.837 22.1477 111.61 21.7443C111.383 21.3409 111.067 21.0256 110.664 20.7983C110.266 20.5653 109.803 20.4489 109.275 20.4489C108.724 20.4489 108.235 20.5767 107.809 20.8324C107.388 21.0824 107.059 21.4205 106.82 21.8466C106.582 22.267 106.46 22.7358 106.454 23.2528V25.392C106.454 26.0398 106.573 26.5994 106.812 27.071C107.056 27.5426 107.4 27.9062 107.843 28.1619C108.286 28.4176 108.812 28.5455 109.42 28.5455C109.823 28.5455 110.192 28.4886 110.528 28.375C110.863 28.2614 111.15 28.0909 111.388 27.8636C111.627 27.6364 111.809 27.358 111.934 27.0284L115.292 27.25C115.121 28.0568 114.772 28.7614 114.244 29.3636C113.721 29.9602 113.045 30.4261 112.215 30.7614C111.391 31.0909 110.44 31.2557 109.36 31.2557Z" fill="#E5AA57"/>
<path d="M0 6H8V28H0V6Z" fill="#E5AA57"/>
<path d="M0 4C0 1.79086 1.79086 0 4 0V0C6.20914 0 8 1.79086 8 4V5H0V4Z" fill="#E5AA57"/>
<path d="M0 28H8L5 31H3L0 28Z" fill="#CA954B"/>
</svg>
