<svg width="42" height="11" viewBox="0 0 42 11" fill="none" xmlns="http://www.w3.org/2000/svg">
<path d="M0.647048 8.36765C0.289693 7.03398 1.08115 5.66314 2.41481 5.30579L20.1828 0.544879C21.3059 0.243949 22.4602 0.910439 22.7612 2.03353C23.175 3.57777 22.2585 5.16506 20.7143 5.57884L3.70891 10.1354C2.37524 10.4928 1.0044 9.70131 0.647048 8.36765Z" fill="#95AABB"/>
<path d="M40.8633 8.36765C41.2207 7.03398 40.4292 5.66314 39.0956 5.30579L21.3276 0.544879C20.2045 0.243949 19.0501 0.910439 18.7492 2.03353C18.3354 3.57777 19.2519 5.16506 20.7961 5.57884L37.8015 10.1354C39.1351 10.4928 40.506 9.70131 40.8633 8.36765Z" fill="#95AABB"/>
</svg>
